<svg width="1056" height="602" viewBox="0 0 1056 602" fill="none" xmlns="http://www.w3.org/2000/svg">
<path d="M909.945 298C911.958 254.25 858.12 239.666 839 283.416" stroke="#FFFFFF" stroke-width="30"/>
<path d="M419 348C419 371.5 389.5 386.5 377 386.5" stroke="#FFFFFF" stroke-width="30"/>
<path d="M250.5 342.5C256 385.5 204.5 397.5 182 375" stroke="#FFFFFF" stroke-width="32.5"/>
<circle cx="335" cy="301" r="43.5" stroke="#FFFFFF" stroke-width="31"/>
<path d="M252 300.5C252 324.096 233.073 343 210 343C186.927 343 168 324.096 168 300.5C168 276.904 186.927 258 210 258C233.073 258 252 276.904 252 300.5Z" stroke="#FFFFFF" stroke-width="30"/>
<path d="M237 302H267V354H237H235L237 302Z" fill="#FFFFFF"/>
<path d="M404 251.451L434 241V348H404V251.451Z" fill="#FFFFFF"/>
<circle cx="500.5" cy="301.5" r="43" stroke="#FFFFFF" stroke-width="31"/>
<circle cx="631.5" cy="300.5" r="43" stroke="#FFFFFF" stroke-width="31"/>
<rect x="529" y="242" width="30" height="116" fill="#FFFFFF"/>
<path d="M573 305H603V398.5L573 389.5V305Z" fill="#FFFFFF"/>
<circle cx="751.5" cy="300.5" r="43" stroke="#FFFFFF" stroke-width="31"/>
<rect x="780" y="241" width="30" height="116" fill="#FFFFFF"/>
<rect x="824" y="241" width="30" height="118" fill="#FFFFFF"/>
<rect x="895" y="293" width="30" height="65" fill="#FFFFFF"/>
<path d="M404 346H434V349L433.5 352.5V353L404 351.5V346Z" fill="#FFFFFF"/>
</svg>
